<svg width="152" height="31" viewBox="0 0 152 31" fill="none" xmlns="http://www.w3.org/2000/svg">
<g clip-path="url(#clip0_120_1733)">
<path d="M9.28965 12.7636L15.1892 6.86641L21.0911 12.7684L24.522 9.33515L15.1892 0L5.85645 9.33276L9.28965 12.7636Z" fill="#A9A9A9"/>
<path d="M-0.0012207 15.1885L3.43073 11.7565L6.86268 15.1885L3.43073 18.6204L-0.0012207 15.1885Z" fill="#A9A9A9"/>
<path d="M9.28957 17.6123L15.1891 23.5118L21.0911 17.6099L24.5243 21.0383L24.5219 21.0407L15.1891 30.3758L5.85636 21.0455L5.85156 21.0407L9.28957 17.6123Z" fill="#A9A9A9"/>
<path d="M23.5098 15.1895L26.9417 11.7575L30.3737 15.1895L26.9417 18.6214L23.5098 15.1895Z" fill="#A9A9A9"/>
<path d="M18.6703 15.1867L15.1891 11.7031L12.6148 14.2774L12.3173 14.5725L11.7079 15.1819L11.7031 15.1867L11.7079 15.1939L15.1891 18.6727L18.6703 15.1891L18.6727 15.1867H18.6703Z" fill="#A9A9A9"/>
<path d="M35.7285 7.36084H43.1947C45.0469 7.36084 46.448 7.84067 47.3981 8.80034C47.756 9.15483 48.0382 9.57836 48.2275 10.0452C48.4168 10.5121 48.5093 11.0125 48.4993 11.5162V11.5618C48.5057 11.9744 48.4483 12.3855 48.3289 12.7806C48.2226 13.1206 48.0683 13.4438 47.8707 13.7402C47.6864 14.0198 47.4635 14.2718 47.2085 14.4888C46.9594 14.7032 46.6865 14.8883 46.3952 15.0406C47.2353 15.3332 47.9907 15.8275 48.5952 16.4801C49.1295 17.0879 49.3966 17.9276 49.3966 18.9992V19.0448C49.4117 19.714 49.2661 20.3772 48.9719 20.9785C48.6868 21.5326 48.2689 22.0073 47.7555 22.3604C47.1751 22.7495 46.5289 23.03 45.8482 23.1881C45.0395 23.3799 44.2105 23.4726 43.3795 23.464H35.7285V7.36084ZM42.4462 13.8722C43.0921 13.9034 43.735 13.7644 44.3103 13.4691C44.5347 13.3381 44.7179 13.1468 44.8392 12.917C44.9604 12.6871 45.0149 12.428 44.9965 12.1688V12.1232C45.0084 11.8844 44.9599 11.6464 44.8554 11.4313C44.751 11.2162 44.5941 11.0308 44.3991 10.8924C44.0008 10.6093 43.4258 10.4678 42.6741 10.4678H39.1809V13.8722H42.4462ZM43.3891 20.3619C44.0326 20.398 44.6732 20.2507 45.2364 19.9373C45.4558 19.7963 45.6334 19.5991 45.7507 19.3662C45.868 19.1332 45.9207 18.8731 45.9034 18.6129V18.5673C45.912 18.32 45.8599 18.0743 45.7516 17.8518C45.6432 17.6293 45.482 17.4367 45.282 17.291C44.8693 16.9711 44.2024 16.8112 43.2811 16.8112H39.1809V20.3619H43.3891Z" fill="#A9A9A9"/>
<path d="M53.8447 7.36084H57.3883V23.4688H53.8447V7.36084Z" fill="#A9A9A9"/>
<path d="M62.7502 7.36084H66.0179L73.5705 17.2742V7.36084H77.0685V23.4688H74.0527L66.253 13.2292V23.4688H62.7502V7.36084Z" fill="#A9A9A9"/>
<path d="M87.7976 7.24561H91.0605L97.9629 23.4688H94.2634L92.7903 19.8556H85.9791L84.506 23.4688H80.8928L87.7976 7.24561ZM91.5259 16.7271L89.3811 11.5017L87.2458 16.7271H91.5259Z" fill="#A9A9A9"/>
<path d="M101.794 7.36084H105.062L112.61 17.2742V7.36084H116.108V23.4688H113.092L105.292 13.2292V23.4688H101.794V7.36084Z" fill="#A9A9A9"/>
<path d="M128.862 23.7518C127.733 23.7615 126.613 23.5428 125.57 23.1088C124.589 22.7035 123.698 22.1058 122.951 21.3509C122.204 20.5961 121.616 19.6993 121.221 18.7135C120.804 17.6824 120.593 16.5797 120.599 15.4675V15.4219C120.581 13.2296 121.424 11.1178 122.948 9.54154C123.698 8.77159 124.595 8.16117 125.587 7.74696C126.666 7.30015 127.824 7.07731 128.991 7.09199C129.682 7.08684 130.371 7.14871 131.05 7.27673C131.631 7.38652 132.198 7.55617 132.744 7.78295C133.239 7.99135 133.71 8.25364 134.147 8.56508C134.574 8.86882 134.976 9.20747 135.347 9.57752L133.094 12.1782C132.518 11.6471 131.873 11.1975 131.175 10.8419C130.489 10.5141 129.737 10.3498 128.977 10.3621C128.345 10.3553 127.718 10.4832 127.139 10.7371C126.56 10.9911 126.042 11.3654 125.618 11.8351C125.198 12.3037 124.87 12.8464 124.649 13.4354C124.418 14.0579 124.302 14.7171 124.306 15.3811V15.4267C124.304 16.0897 124.42 16.7478 124.649 17.37C124.867 17.9612 125.192 18.5069 125.609 18.9799C126.029 19.4554 126.546 19.8352 127.125 20.0935C127.705 20.3518 128.333 20.4825 128.967 20.4769C129.775 20.5024 130.577 20.3285 131.302 19.9707C131.992 19.5947 132.63 19.1301 133.2 18.5888L135.455 20.868C135.057 21.3002 134.626 21.7012 134.166 22.0676C133.715 22.4245 133.225 22.7295 132.705 22.9769C132.152 23.2375 131.568 23.43 130.968 23.5503C130.275 23.6893 129.569 23.7568 128.862 23.7518Z" fill="#A9A9A9"/>
<path d="M139.636 7.36084H151.759V10.5133H143.122V13.781H150.728V16.9335H143.134V20.3163H151.879V23.4688H139.644L139.636 7.36084Z" fill="#A9A9A9"/>
</g>
<defs>
<clipPath id="clip0_120_1733">
<rect width="151.877" height="30.3758" fill="white"/>
</clipPath>
</defs>
</svg>
