<svg width="131" height="22" viewBox="0 0 131 22" fill="none" xmlns="http://www.w3.org/2000/svg">
<g clip-path="url(#clip0_120_1759)">
<path d="M11.091 0.396973H23.2796C23.2722 0.558187 23.2165 0.71345 23.1197 0.842594C22.7071 1.55022 22.3358 2.28674 21.9304 2.99437C21.3568 4.01043 20.8204 5.04505 20.2376 6.05698C19.8683 6.78525 19.4516 7.49081 19.0575 8.2067C16.6891 8.2067 14.3208 8.2067 11.9524 8.2067C11.8286 8.2067 11.7058 8.21289 11.582 8.22011C11.4789 8.49243 11.3076 8.73071 11.1694 8.98653C10.9889 9.27949 10.8424 9.59204 10.664 9.885C10.4752 10.279 10.2142 10.6318 10.0244 11.0248C9.63244 11.6902 9.26625 12.3658 8.88252 13.0384C8.48228 13.7261 8.09099 14.4234 7.70863 15.1303C7.54682 15.3809 7.39775 15.6394 7.26198 15.905C6.46048 17.2996 5.68477 18.7067 4.88224 20.1003C4.81417 20.2501 4.7245 20.3891 4.6161 20.5129C3.24417 20.5036 1.87223 20.5129 0.500293 20.5129C0.331318 20.5161 0.163344 20.5396 0 20.583C0 20.2034 0.253757 19.8991 0.424991 19.5804C0.631297 19.1523 0.906716 18.7551 1.11405 18.326C2.75831 15.3841 4.38504 12.4318 6.02414 9.48786C6.39549 8.84831 6.71424 8.19535 7.08765 7.56818C7.5539 6.74295 7.98818 5.89916 8.47403 5.08322C8.62876 4.74178 8.83713 4.42923 9.00733 4.09604C9.61181 3.02016 10.2049 1.93808 10.8074 0.862193C10.8788 0.69417 10.9744 0.537452 11.091 0.396973Z" fill="#A9A9A9"/>
<path d="M25.2147 4.72871C26.0265 3.31035 26.8105 1.87652 27.6336 0.464355H32.0362C32.1004 0.467599 32.164 0.477627 32.226 0.49427C32.0795 0.716049 31.9568 0.951238 31.8278 1.1823C30.7661 3.08788 29.7074 4.9945 28.6518 6.90214C28.2082 7.67889 27.7956 8.47317 27.3458 9.24578L27.3015 9.26126L27.2932 9.35822C25.2233 13.0717 23.1602 16.788 21.104 20.507C17.0625 20.5111 13.0206 20.5111 8.97839 20.507C9.20843 20.0263 9.48075 19.5673 9.73657 19.1C10.8878 16.9833 12.0689 14.8852 13.2035 12.7685C15.6868 12.7643 18.17 12.7643 20.6533 12.7685C22.1872 10.0968 23.688 7.4045 25.2106 4.72871H25.2147Z" fill="#A9A9A9"/>
<path d="M70.6505 0.409668V20.7515H74.1753V6.44722L80.6048 15.8682L86.9828 6.22338V20.7515H90.6106V0.409668H86.7084L80.6306 9.7997L74.4847 0.409668H70.6505Z" fill="#A9A9A9"/>
<path d="M54.1636 5.65576H56.467V20.9224H54.1636V5.65576Z" fill="#A9A9A9"/>
<path d="M53.9656 0H56.6651V2.56129H53.9656V0Z" fill="#A9A9A9"/>
<path d="M60.8685 1.28125H63.2751V5.65598H68.0201V7.78815H63.2751V16.8574C63.2709 17.2068 63.352 17.552 63.5113 17.8631C63.9187 18.6368 65.0256 19.5548 68.0201 18.482V20.4585C68.0201 20.4585 65.2865 22.0058 62.8109 20.5967C62.8109 20.5967 61.5813 20.0747 61.0645 18.3129C60.9302 17.8409 60.8643 17.3522 60.8685 16.8615V7.75411L58.8395 7.78815V5.65598H60.885L60.8685 1.28125Z" fill="#A9A9A9"/>
<path d="M94.3242 0.409668V20.8887H109.625V17.5878H98.0553V12.1547H108.25V8.90536H98.0377V3.7312H109.505V0.409668H94.3242Z" fill="#A9A9A9"/>
<path d="M111.061 0.409668H115.419L120.422 7.59944L125.386 0.409668H129.744L122.626 10.397L130.187 20.8711H125.597L120.439 13.2213L115.032 20.8887H110.674L118.127 10.4877L111.061 0.409668Z" fill="#A9A9A9"/>
<path d="M47.1141 10.2637C47.1141 10.2637 50.4841 8.99184 50.2778 5.32991C50.2778 5.32991 50.25 1.80826 46.2848 0.721023C45.6255 0.544374 44.9455 0.456946 44.263 0.461077H34.7533L34.7791 20.8029H45.017C45.017 20.8029 51.0082 20.6739 51.4301 15.3358C51.4301 15.3358 51.8592 11.6047 47.1141 10.2637ZM37.2114 2.56128H43.281C48.0425 2.54477 47.9053 5.89725 47.9053 5.89725C47.9765 9.72217 43.6069 9.6448 43.6069 9.6448H37.2114V2.56128ZM44.6385 18.6532H37.2114V11.5707H44.3125C49.074 11.5531 48.9369 14.9056 48.9369 14.9056C49.008 18.7305 44.6385 18.6532 44.6385 18.6532Z" fill="#A9A9A9"/>
</g>
<defs>
<clipPath id="clip0_120_1759">
<rect width="130.188" height="21.1887" fill="white"/>
</clipPath>
</defs>
</svg>
