<svg width="313" height="374" viewBox="0 0 313 374" fill="none" xmlns="http://www.w3.org/2000/svg">
<g clip-path="url(#clip0_212_1287)">
<path d="M219 100.5C219 120.377 213.106 139.808 202.063 156.335C191.02 172.862 175.324 185.743 156.96 193.35C138.596 200.957 118.389 202.947 98.8934 199.069C79.3983 195.191 61.4909 185.619 47.4358 171.564C33.3806 157.509 23.8089 139.602 19.9311 120.107C16.0532 100.611 18.0435 80.4043 25.6501 62.0403C33.2567 43.6763 46.138 27.9804 62.6652 16.9373C79.1923 5.89422 98.623 0 118.5 0C145.154 0 170.717 10.5884 189.564 29.4358C208.412 48.2832 219 73.8457 219 100.5V100.5Z" fill="#F7931A"/>
<path fill-rule="evenodd" clip-rule="evenodd" d="M89.4281 45.8918L112.525 52.0771L117.687 32.8359L129.235 35.9697L124.274 54.416L133.694 56.9468L138.664 38.2995L150.413 41.4424L145.352 60.1902C145.352 60.1902 164.538 64.4386 169.051 80.0435C173.565 95.6484 159.129 103.844 154.671 104.154C154.671 104.154 171.482 113.373 165.708 131.509C159.933 149.644 142.209 152.888 123.562 148.731L118.5 168.173L106.751 165.03L111.913 145.889L102.594 143.349L97.4315 162.627L85.7735 159.493L90.9447 140.307L67.2358 133.912L73.211 120.646C73.211 120.646 79.8988 122.473 82.4296 123.076C84.9604 123.679 86.5867 121.048 87.2993 118.416C88.0119 115.785 98.7472 72.1771 99.7613 68.5865C100.775 64.9959 100.364 62.1911 96.1067 61.0856C91.8492 59.9801 86.0567 58.2533 86.0567 58.2533L89.4281 45.8918ZM112.726 103.643L106.33 129.069C106.33 129.069 138.043 140.517 142.099 124.41C146.156 108.302 112.726 103.643 112.726 103.643ZM115.668 91.5828L121.944 68.285C121.944 68.285 149.098 73.1456 145.754 86.1101C142.41 99.0746 126.403 94.1044 115.668 91.5828Z" fill="white"/>
</g>
<g clip-path="url(#clip1_212_1287)">
<path fill-rule="evenodd" clip-rule="evenodd" d="M237.707 181C252.54 181 267.041 185.399 279.374 193.64C291.708 201.881 301.321 213.594 306.998 227.299C312.674 241.003 314.159 256.083 311.266 270.632C308.372 285.18 301.229 298.544 290.74 309.033C280.251 319.522 266.887 326.665 252.338 329.559C237.79 332.453 222.71 330.968 209.005 325.291C195.301 319.614 183.588 310.001 175.346 297.668C167.105 285.334 162.707 270.834 162.707 256C162.707 236.109 170.608 217.032 184.674 202.967C198.739 188.902 217.815 181 237.707 181V181Z" fill="white"/>
<path fill-rule="evenodd" clip-rule="evenodd" d="M237.707 197.104L257.439 226.586L277.171 256.075L237.707 275.957L198.243 256L217.975 226.511L237.707 197.104ZM237.707 283.9L200.432 264.011L237.707 314.895L274.982 264.011L237.707 283.9Z" fill="#343434"/>
<path fill-rule="evenodd" clip-rule="evenodd" d="M237.707 197.104L257.438 226.511L277.17 256L237.707 241.102V197.104Z" fill="#343434"/>
<path fill-rule="evenodd" clip-rule="evenodd" d="M237.707 283.9L275.057 264.012L237.707 314.971V283.9Z" fill="#313131"/>
<path fill-rule="evenodd" clip-rule="evenodd" d="M237.707 241.102L277.17 256L237.707 275.882V241.102Z" fill="#151515"/>
<path fill-rule="evenodd" clip-rule="evenodd" d="M237.707 197.104L217.975 226.511L198.243 256L237.707 241.102V197.104Z" fill="#8C8C8C"/>
<path fill-rule="evenodd" clip-rule="evenodd" d="M237.707 283.9L200.432 264.012L237.707 314.971V283.9Z" fill="#8A8A8A"/>
<path fill-rule="evenodd" clip-rule="evenodd" d="M237.707 241.102L198.243 256L237.707 275.882V241.102Z" fill="#353535"/>
</g>
<path d="M67 374C104.003 374 134 344.003 134 307C134 269.997 104.003 240 67 240C29.9969 240 0 269.997 0 307C0 344.003 29.9969 374 67 374Z" fill="#172852"/>
<path d="M53.9689 269.943C61.8146 267.008 70.6451 267.001 78.6382 269.413C89.0433 272.643 97.8271 280.495 102.417 290.351C103.683 293.158 104.896 296.086 105.016 299.208C99.1671 295.818 92.7552 293.62 86.3299 291.617C76.0521 287.912 65.2919 285.339 55.5635 280.247C53.2989 278.894 50.4112 277.507 49.7948 274.686C49.5469 272.247 52.1264 270.887 53.9689 269.943Z" fill="#FFD83D"/>
<path d="M30.2842 293.661C32.5555 287.497 36.2807 281.775 41.3392 277.534C42.6256 288.113 47.128 298.338 54.565 306.029C63.4827 315.295 76.1859 320.984 89.1102 320.769C94.2424 320.93 99.2607 319.744 104.266 318.786C99.3411 336.581 79.8374 348.393 61.7675 345.553C50.8599 344.159 40.7898 337.7 34.7129 328.581C27.8588 318.505 26.1302 305.125 30.2842 293.661Z" fill="#FFD83D"/>
<path d="M86.3294 291.617C92.7547 293.62 99.1666 295.818 105.016 299.208L105.411 299.415C105.954 303.496 106.349 307.656 105.625 311.743C102.684 310.497 100.299 308.306 97.8065 306.37C93.0093 302.377 88.1116 297.807 86.3294 291.617Z" fill="#FF6F03"/>
<defs>
<clipPath id="clip0_212_1287">
<rect width="201" height="201" fill="white" transform="translate(18)"/>
</clipPath>
<clipPath id="clip1_212_1287">
<rect width="150" height="150" fill="white" transform="translate(163 181)"/>
</clipPath>
</defs>
</svg>
