<svg width="124" height="34" viewBox="0 0 124 34" fill="none" xmlns="http://www.w3.org/2000/svg">
<path d="M17.3008 33.158C26.5367 33.158 34.0239 25.7353 34.0239 16.579C34.0239 7.42266 26.5367 0 17.3008 0C8.06484 0 0.577637 7.42266 0.577637 16.579C0.577637 25.7353 8.06484 33.158 17.3008 33.158Z" fill="#A9A9A9"/>
<path d="M19.082 18.1087V18.106C18.9664 18.114 18.3695 18.1487 17.0414 18.1487C15.9794 18.1487 15.2346 18.1194 14.9711 18.106V18.1087C10.8871 17.9301 7.84094 17.2265 7.84094 16.3815C7.84094 15.5392 10.8898 14.8329 14.9711 14.6543V17.4077C15.2373 17.4264 16.0036 17.4717 17.0602 17.4717C18.3292 17.4717 18.9637 17.4184 19.082 17.4077V14.657C23.1579 14.8382 26.1961 15.5419 26.1961 16.3842C26.1961 17.2265 23.1553 17.9301 19.082 18.1114V18.1087ZM19.082 14.3718V11.9089H24.7684V8.15332H9.28741V11.9089H14.9738V14.3718C10.3521 14.5823 6.87842 15.4886 6.87842 16.5761C6.87842 17.6636 10.3548 18.5698 14.9738 18.7831V26.6781H19.0847V18.7831C23.6984 18.5725 27.1667 17.6662 27.1667 16.5788C27.1667 15.4939 23.6984 14.585 19.0847 14.3744" fill="#F8F8FC"/>
<path d="M48.2274 9.18V13.1622H52.1313V16.1501H48.2006V22.2087C48.2006 23.5467 48.9453 24.1998 50.0369 24.1998C50.5827 24.1998 51.2145 24.0292 51.7307 23.7733L52.7067 26.7319C51.7038 27.1291 50.8703 27.2997 49.8083 27.329C46.738 27.4436 44.7296 25.7084 44.7296 22.2087V16.1501H42.0894V13.1622H44.7296V9.5505L48.2274 9.18ZM115.531 12.9756L115.789 14.5962C116.881 12.861 118.344 12.6051 119.779 12.6051C121.242 12.6051 122.648 13.1728 123.422 13.9405L121.844 16.9551C121.126 16.358 120.468 16.0435 119.32 16.0435C117.483 16.0435 115.789 17.0111 115.789 19.5992V26.9958H112.289V12.9703L115.531 12.9756ZM106.952 18.3518C106.723 16.5313 105.288 15.6197 103.279 15.6197C101.387 15.6197 99.8352 16.5313 99.319 18.3518H106.952ZM99.2626 21.2251C99.4911 22.9603 101.013 24.2131 103.481 24.2131C104.772 24.2131 106.465 23.728 107.269 22.9044L109.506 25.0954C108.014 26.6307 105.575 27.3716 103.422 27.3716C98.5447 27.3716 95.6437 24.3837 95.6437 19.8897C95.6437 15.6224 98.5716 12.5491 103.164 12.5491C107.898 12.5491 110.856 15.4518 110.31 21.2251H99.2626ZM83.8246 7.08496V14.8787C85.0882 13.2581 86.6369 12.773 88.2447 12.773C92.2614 12.773 94.0413 15.4758 94.0413 19.6019V26.9985H90.5407V19.6312C90.5407 17.0697 89.1911 15.9902 87.3252 15.9902C85.2576 15.9902 83.8246 17.7254 83.8246 19.8311V27.0012H80.324V7.08763L83.8246 7.08496ZM74.5274 9.02007V13.0022H78.4313V15.9902H74.5005V22.0488C74.5005 23.3868 75.2479 24.0398 76.3368 24.0398C76.8826 24.0398 77.5144 23.8693 78.0306 23.6134L79.0066 26.572C78.0038 26.9692 77.1703 27.1398 76.1083 27.1691C73.0379 27.2837 71.0295 25.5458 71.0295 22.0488V15.9902H68.3893V13.0022H71.0295V9.39057L74.5274 9.02007ZM64.8565 18.3518C64.6279 16.5313 63.1922 15.6197 61.1838 15.6197C59.2911 15.6197 57.7397 16.5313 57.2235 18.3518H64.8565ZM57.1671 21.2251C57.3956 22.9603 58.9173 24.2131 61.3855 24.2131C62.676 24.2131 64.3698 23.728 65.1737 22.9044L67.4107 25.0954C65.9185 26.6307 63.4799 27.3716 61.3263 27.3716C56.4465 27.3716 53.5482 24.3837 53.5482 19.8897C53.5482 15.6224 56.4761 12.5491 61.0655 12.5491C65.8002 12.5491 68.755 15.4518 68.2119 21.2251H57.1671Z" fill="#A9A9A9"/>
</svg>
