<svg width="155" height="38" viewBox="0 0 155 38" fill="none" xmlns="http://www.w3.org/2000/svg">
<path d="M17.8708 7.43225V2.68225H2.37076V35.3176H17.8708V30.5676C14.6956 30.5676 11.6504 29.3488 9.40526 27.1794C7.16007 25.0101 5.89874 22.0678 5.89874 18.9999C5.89874 15.932 7.16007 12.9896 9.40526 10.8203C11.6504 8.65099 14.6956 7.43225 17.8708 7.43225Z" fill="#111111"/>
<path d="M17.8721 7.43219V30.5675C21.0473 30.5675 24.0925 29.3487 26.3377 27.1793C28.5829 25.01 29.8442 22.0678 29.8442 18.9998C29.8442 15.9319 28.5829 12.9896 26.3377 10.8203C24.0925 8.65093 21.0473 7.43219 17.8721 7.43219Z" fill="#2752E7"/>
<path d="M45.3622 29.084C44.5757 29.084 43.8392 28.9259 43.1529 28.6097C42.4743 28.2936 41.9191 27.7731 41.4872 27.0482C41.0785 26.3464 40.8742 25.4365 40.8742 24.3183V16.4989H44.4369V23.3004C44.4369 24.2104 44.6644 24.8581 45.1193 25.2437C45.5743 25.6293 46.1257 25.8221 46.7734 25.8221C47.7297 25.6987 48.4275 25.3439 48.8671 24.7579C49.3066 24.1718 49.5264 23.4701 49.5264 22.6527V16.4989H53.066V28.9452H49.5264V26.7474C48.6165 28.3051 47.2284 29.084 45.3622 29.084ZM60.0793 28.9452H56.5166V16.4989H60.0793V18.743C60.9584 17.2007 62.331 16.4064 64.1972 16.3601V19.7146L63.6883 19.6915C63.0945 19.6915 62.52 19.7956 61.9647 20.0038C61.4172 20.2043 60.9661 20.5474 60.6114 21.0332C60.2567 21.5191 60.0793 22.1591 60.0793 22.9534V28.9452Z" fill="#2752E7"/>
<path d="M73.5438 29.1997C71.107 29.1997 69.0828 28.4015 67.4711 26.8053C65.8594 25.209 65.0535 23.2079 65.0535 20.8019C65.0535 18.4576 65.8748 16.4874 67.5173 14.8911C69.1599 13.2948 71.215 12.4967 73.6826 12.4967C76.0886 12.4967 78.217 13.3989 80.0677 15.2034L77.9394 17.8176C76.6438 16.3987 75.2404 15.6892 73.7289 15.6892C72.3563 15.6892 71.1918 16.1558 70.2356 17.0888C69.2794 18.0219 68.8013 19.2442 68.8013 20.7556C68.8013 21.3957 68.9054 22.0203 69.1136 22.6295C69.3218 23.2387 69.6303 23.7862 70.039 24.2721C70.4477 24.7579 70.9605 25.1473 71.5774 25.4403C72.1943 25.7257 72.9115 25.8683 73.7289 25.8683C75.1787 25.8683 76.5821 25.2283 77.9394 23.9482L80.0909 26.2847C78.0705 28.228 75.8881 29.1997 73.5438 29.1997ZM85.7665 28.9452H82.2038V16.4989H85.7665V18.743C86.6456 17.2007 88.0183 16.4064 89.8844 16.3601V19.7146L89.3755 19.6915C88.7817 19.6915 88.2072 19.7956 87.652 20.0038C87.1045 20.2043 86.6534 20.5474 86.2986 21.0332C85.9439 21.5191 85.7665 22.1591 85.7665 22.9534V28.9452ZM93.8735 33.5952C92.5625 33.5952 91.4367 33.1942 90.4959 32.3922L91.9996 29.8243C92.524 30.2716 93.0638 30.4952 93.619 30.4952C94.3747 30.4952 94.9222 30.125 95.2616 29.3847L95.6086 28.6907L90.4496 16.4989H94.128L97.3899 25.0586L100.328 16.4989H103.891L98.431 30.3333C97.5519 32.5079 96.0327 33.5952 93.8735 33.5952ZM109.129 33.4333H105.567V16.4989H109.129V18.3265C110.07 17.031 111.381 16.3832 113.062 16.3832C113.818 16.3832 114.547 16.5066 115.249 16.7534C115.95 16.9925 116.575 17.3703 117.122 17.887C117.67 18.4036 118.106 19.0668 118.429 19.8765C118.753 20.6862 118.915 21.6579 118.915 22.7915C118.915 24.6114 118.406 26.1151 117.388 27.3027C116.371 28.4902 114.952 29.084 113.132 29.084C111.404 29.084 110.07 28.4362 109.129 27.1407V33.4333ZM112.229 26.1228C113.247 26.1228 114.015 25.7874 114.531 25.1165C115.048 24.4456 115.306 23.632 115.306 22.6758C115.306 21.7658 115.052 20.9677 114.543 20.2814C114.034 19.5951 113.263 19.2519 112.229 19.2519C111.196 19.2519 110.421 19.5912 109.904 20.2698C109.388 20.9484 109.129 21.7504 109.129 22.6758C109.129 23.8325 109.434 24.6962 110.043 25.2668C110.653 25.8375 111.381 26.1228 112.229 26.1228ZM125.731 29.1071C124.62 29.1071 123.691 28.8025 122.943 28.1933C122.195 27.5841 121.821 26.6086 121.821 25.2668V19.5064H120.086V17.0541H121.821V13.6303H125.36V17.0541H128.738V19.5295H125.36V24.6653C125.36 25.6216 125.738 26.0997 126.494 26.0997C126.988 26.0997 127.566 25.9454 128.229 25.637L128.969 28.2512C127.982 28.8218 126.903 29.1071 125.731 29.1071ZM136.647 29.084C135.197 29.084 133.975 28.7987 132.98 28.228C131.939 27.6188 131.176 26.8323 130.69 25.8683C130.204 24.9044 129.961 23.8556 129.961 22.7221C129.961 21.334 130.258 20.1696 130.852 19.2288C131.492 18.2494 132.321 17.5323 133.339 17.0773C134.357 16.6146 135.459 16.3832 136.647 16.3832C138.544 16.3832 140.129 16.923 141.401 18.0027C142.674 19.0823 143.31 20.6554 143.31 22.7221C143.31 23.5395 143.179 24.3299 142.916 25.0933C142.662 25.849 142.261 26.5277 141.713 27.1291C141.174 27.7306 140.484 28.2087 139.643 28.5635C138.802 28.9105 137.804 29.084 136.647 29.084ZM136.647 26.1922C137.495 26.1922 138.224 25.903 138.833 25.3247C139.442 24.7463 139.747 23.8942 139.747 22.7683C139.747 21.6425 139.442 20.7903 138.833 20.212C138.224 19.6336 137.495 19.3444 136.647 19.3444C135.783 19.3444 135.047 19.6336 134.438 20.212C133.829 20.7903 133.524 21.6425 133.524 22.7683C133.524 23.8942 133.829 24.7463 134.438 25.3247C135.047 25.903 135.783 26.1922 136.647 26.1922Z" fill="#2C3131"/>
<path d="M149.817 15.3566C151.223 15.3566 152.362 14.2557 152.362 12.8977C152.362 11.5398 151.223 10.4389 149.817 10.4389C148.412 10.4389 147.272 11.5398 147.272 12.8977C147.272 14.2557 148.412 15.3566 149.817 15.3566Z" fill="#2C3131"/>
</svg>
