<svg width="200" height="200" viewBox="0 0 200 200" fill="none" xmlns="http://www.w3.org/2000/svg">
<path d="M84.4822 55.2896C86.0981 55.2883 87.6918 55.6644 89.1358 56.3878C90.5798 57.1113 91.8339 58.1619 92.7976 59.4555L98.7695 51.6681L80.8509 38L67.1464 55.8708L74.8692 61.7617C75.642 59.85 76.9702 58.2125 78.6831 57.0592C80.396 55.906 82.4155 55.2897 84.4822 55.2896Z" fill="#699CFF"/>
<path d="M168.476 121.759H197.86C199.088 126.416 199.229 131.292 198.272 136.011C197.315 140.73 195.285 145.168 192.338 148.982C189.391 152.796 185.607 155.885 181.275 158.012C176.943 160.138 172.18 161.245 167.353 161.248C166.491 161.248 165.638 161.214 164.794 161.144V143.867C164.795 143.039 164.591 142.223 164.201 141.492C163.811 140.761 163.247 140.136 162.557 139.674C161.868 139.212 161.075 138.926 160.249 138.841C159.423 138.757 158.588 138.877 157.819 139.19V132.391C157.819 130.995 158.094 129.613 158.63 128.323C159.165 127.033 159.95 125.861 160.939 124.874C161.929 123.886 163.104 123.103 164.397 122.569C165.69 122.034 167.076 121.759 168.476 121.759Z" fill="#699CFF"/>
<path d="M19.0494 131.785L8.82214 123.983L1.00002 134.183L11.2273 141.985L19.0494 131.785Z" fill="#699CFF"/>
<path d="M25.2383 152.223L16.0306 83.3785L150.89 62.337L160.098 131.181L25.2383 152.223Z" fill="#F1F1F1" stroke="#111111" stroke-width="0.563637"/>
<path d="M148.055 68.5702L20.3833 88.4902L28.1279 146.395L155.8 126.475L148.055 68.5702Z" fill="white"/>
<path d="M16.1929 85.0324L15.4366 79.3775L150.296 58.336L151.052 63.9909L16.1929 85.0324Z" fill="#E5E5E5" stroke="#111111" stroke-width="0.563637"/>
<path d="M19.885 83.2916C20.4801 83.2916 20.9625 82.7706 20.9625 82.128C20.9625 81.4853 20.4801 80.9644 19.885 80.9644C19.29 80.9644 18.8076 81.4853 18.8076 82.128C18.8076 82.7706 19.29 83.2916 19.885 83.2916Z" fill="white"/>
<path d="M23.9323 82.6612C24.5273 82.6612 25.0098 82.1402 25.0098 81.4976C25.0098 80.855 24.5273 80.334 23.9323 80.334C23.3372 80.334 22.8548 80.855 22.8548 81.4976C22.8548 82.1402 23.3372 82.6612 23.9323 82.6612Z" fill="white"/>
<path d="M27.9795 82.0294C28.5745 82.0294 29.0569 81.5084 29.0569 80.8658C29.0569 80.2231 28.5745 79.7021 27.9795 79.7021C27.3844 79.7021 26.902 80.2231 26.902 80.8658C26.902 81.5084 27.3844 82.0294 27.9795 82.0294Z" fill="white"/>
<path d="M45.6984 161.718V92.1583H181.957V161.718H45.6984Z" fill="#E6E6E6" stroke="#111111" stroke-width="0.563637"/>
<path d="M45.6608 93.8013V88.1281H181.878V93.8013H45.6608Z" fill="#E5E5E5" stroke="#111111" stroke-width="0.604864"/>
<path d="M49.6777 92.6812C50.2728 92.6812 50.7552 92.1603 50.7552 91.5176C50.7552 90.875 50.2728 90.354 49.6777 90.354C49.0826 90.354 48.6002 90.875 48.6002 91.5176C48.6002 92.1603 49.0826 92.6812 49.6777 92.6812Z" fill="white"/>
<path d="M53.7669 92.6812C54.3619 92.6812 54.8444 92.1603 54.8444 91.5176C54.8444 90.875 54.3619 90.354 53.7669 90.354C53.1718 90.354 52.6894 90.875 52.6894 91.5176C52.6894 92.1603 53.1718 92.6812 53.7669 92.6812Z" fill="white"/>
<path d="M57.8564 92.6812C58.4514 92.6812 58.9338 92.1603 58.9338 91.5176C58.9338 90.875 58.4514 90.354 57.8564 90.354C57.2613 90.354 56.7789 90.875 56.7789 91.5176C56.7789 92.1603 57.2613 92.6812 57.8564 92.6812Z" fill="white"/>
<path d="M49.6106 156.114V98.172H178.044V156.114H49.6106Z" fill="white" stroke="#111111" stroke-width="0.563637"/>
<ellipse cx="150.546" cy="121.608" rx="7.0611" ry="7.08383" fill="#699CFF"/>
<path d="M161.722 139.795C161.722 138.467 161.434 137.153 160.875 135.926C160.316 134.7 159.497 133.586 158.465 132.647C157.432 131.708 156.206 130.964 154.857 130.456C153.508 129.948 152.062 129.687 150.601 129.687C149.141 129.687 147.695 129.948 146.346 130.456C144.997 130.964 143.771 131.708 142.738 132.647C141.705 133.586 140.886 134.7 140.327 135.926C139.769 137.153 139.481 138.467 139.481 139.795L150.601 139.795H161.722Z" fill="#699CFF"/>
<path d="M84.3557 140.198H66.188V141.673H84.3557V140.198Z" fill="#E6E6E6"/>
<path d="M86.6213 144.03H63.7573V145.505H86.6213V144.03Z" fill="#E6E6E6"/>
<path d="M83.7386 117.795H65.756V131.761H83.7386V117.795Z" fill="#699CFF"/>
<path d="M85.537 130.665H68.2736C68.0829 130.664 67.9001 130.58 67.7652 130.431C67.6304 130.281 67.5545 130.078 67.5543 129.867V116.699C67.5545 116.487 67.6304 116.284 67.7652 116.135C67.9001 115.985 68.0829 115.901 68.2736 115.901H85.537C85.7277 115.901 85.9105 115.985 86.0454 116.135C86.1802 116.284 86.2561 116.487 86.2563 116.699V129.867C86.2561 130.078 86.1802 130.281 86.0454 130.431C85.9105 130.58 85.7277 130.664 85.537 130.665ZM68.2736 116.699V129.867H85.5375L85.5369 116.699H68.2736Z" fill="#3F3D56"/>
<path d="M83.5586 116.2H82.8393C82.8393 114.454 82.2141 112.779 81.1012 111.544C79.9883 110.31 78.4789 109.616 76.905 109.616C75.3312 109.616 73.8218 110.31 72.7089 111.544C71.596 112.779 70.9708 114.454 70.9708 116.2H70.2515C70.2515 114.242 70.9525 112.364 72.2002 110.98C73.448 109.596 75.1404 108.818 76.905 108.818C78.6697 108.818 80.362 109.596 81.6098 110.98C82.8576 112.364 83.5586 114.242 83.5586 116.2Z" fill="#3F3D56"/>
<path d="M78.704 121.686C78.7044 121.338 78.6229 120.997 78.4678 120.695C78.3126 120.393 78.0891 120.142 77.8194 119.965C77.5496 119.789 77.243 119.693 76.9299 119.689C76.6167 119.684 76.3079 119.77 76.0339 119.938C75.76 120.107 75.5304 120.352 75.3679 120.649C75.2054 120.946 75.1157 121.284 75.1075 121.632C75.0994 121.979 75.1732 122.323 75.3215 122.629C75.4699 122.935 75.6877 123.192 75.9534 123.376V125.518C75.9534 125.656 75.978 125.794 76.0258 125.922C76.0737 126.05 76.1438 126.166 76.2322 126.265C76.3207 126.363 76.4256 126.44 76.5411 126.493C76.6567 126.547 76.7805 126.574 76.9055 126.574C77.158 126.574 77.4002 126.463 77.5788 126.265C77.7573 126.066 77.8576 125.798 77.8576 125.518V123.376C78.1165 123.197 78.3301 122.948 78.4781 122.653C78.6262 122.357 78.704 122.024 78.704 121.686Z" fill="#3F3D56"/>
</svg>
